<?xml version="1.0" encoding="UTF-8"?>
<svg version="1.1" xmlns="http://www.w3.org/2000/svg" width="249" height="125">
<path d="M0 0 C82.17 0 164.34 0 249 0 C249 41.25 249 82.5 249 125 C166.83 125 84.66 125 0 125 C0 83.75 0 42.5 0 0 Z " fill="#FDFDFD" transform="translate(0,0)"/>
<path d="M0 0 C0.33 1.32 0.66 2.64 1 4 C-2.98542658 4.89993504 -6.95124361 5.33658763 -11.01171875 5.71875 C-13.06965844 5.90252406 -13.06965844 5.90252406 -15 7 C-14.87616537 8.95507094 -14.87616537 8.95507094 -14 11 C-11.79238025 12.25208751 -11.79238025 12.25208751 -9.125 13.0625 C-3.15341587 15.09074942 -3.15341587 15.09074942 -1 18 C-1 22.21291972 -1.27671929 24.25662816 -4.25 27.3125 C-9.77067297 30.70018568 -14.52661665 31.97668591 -21 31 C-23.35295678 29.8955509 -24.96926429 28.66624468 -27 27 C-26.67 25.68 -26.34 24.36 -26 23 C-22.125 23.875 -22.125 23.875 -21 25 C-19.04469236 25.12548989 -17.08429521 25.17575363 -15.125 25.1875 C-14.05507813 25.20167969 -12.98515625 25.21585938 -11.8828125 25.23046875 C-8.80203566 25.2194778 -8.80203566 25.2194778 -6 23 C-6 22.01 -6 21.02 -6 20 C-6.84304687 19.59007813 -7.68609375 19.18015625 -8.5546875 18.7578125 C-9.65039062 18.21898438 -10.74609375 17.68015625 -11.875 17.125 C-13.51082031 16.32449219 -13.51082031 16.32449219 -15.1796875 15.5078125 C-18 14 -18 14 -20 12 C-20.4375 9.125 -20.4375 9.125 -20 6 C-14.33683019 0.00370255 -7.75225194 -0.31009008 0 0 Z " fill="#1B1A1B" transform="translate(75,8)"/>
<path d="M0 0 C0.99 0 1.98 0 3 0 C3.33 1.32 3.66 2.64 4 4 C4.66 3.34 5.32 2.68 6 2 C9.125 1.875 9.125 1.875 12 2 C12 3.32 12 4.64 12 6 C12.556875 5.484375 13.11375 4.96875 13.6875 4.4375 C16 3 16 3 18.75 3.3125 C19.4925 3.539375 20.235 3.76625 21 4 C20.33333333 7.33333333 19.66666667 10.66666667 19 14 C20.32 14.33 21.64 14.66 23 15 C23 15.66 23 16.32 23 17 C20.125 17.625 20.125 17.625 17 18 C15 16 15 16 14.875 12.375 C14.91625 11.26125 14.9575 10.1475 15 9 C14.52949219 9.5775 14.05898437 10.155 13.57421875 10.75 C12.95160156 11.4925 12.32898438 12.235 11.6875 13 C11.07261719 13.7425 10.45773438 14.485 9.82421875 15.25 C8 17 8 17 5 17 C5.165 15.88625 5.33 14.7725 5.5 13.625 C6.0455458 10.27967967 6.0455458 10.27967967 6 8 C3.36 11.3 0.72 14.6 -2 18 C-2.99 17.67 -3.98 17.34 -5 17 C-3.96232949 10.93267948 -2.66038099 5.5626148 0 0 Z " fill="#141212" transform="translate(137,20)"/>
<path d="M0 0 C0.99 0 1.98 0 3 0 C2.39174965 4.34464536 1.73832608 8.67551867 1 13 C4.73936478 8.9096916 7.74684823 5.13217903 10 0 C10.99 0.33 11.98 0.66 13 1 C10.97391137 11.0827705 8.54705273 19.82986177 2 28 C-1.21451269 29.60725635 -4.43612536 29.05748185 -8 29 C-8.33 28.01 -8.66 27.02 -9 26 C-8.37351562 25.97421875 -7.74703125 25.9484375 -7.1015625 25.921875 C-6.28429687 25.86515625 -5.46703125 25.8084375 -4.625 25.75 C-3.81289062 25.70359375 -3.00078125 25.6571875 -2.1640625 25.609375 C0.14227791 25.21553782 0.14227791 25.21553782 1.1875 23.1875 C1.455625 22.465625 1.72375 21.74375 2 21 C2.28101562 20.36578125 2.56203125 19.7315625 2.8515625 19.078125 C3.10679688 18.47484375 3.36203125 17.8715625 3.625 17.25 C4.07875 16.1775 4.5325 15.105 5 14 C4.2575 14.680625 3.515 15.36125 2.75 16.0625 C0 18 0 18 -2.3125 17.75 C-2.869375 17.5025 -3.42625 17.255 -4 17 C-4.48736475 10.29873464 -3.07708804 5.93438408 0 0 Z " fill="#171818" transform="translate(99,20)"/>
<path d="M0 0 C0 0.66 0 1.32 0 2 C0.99 2 1.98 2 3 2 C2.67 5.96 2.34 9.92 2 14 C2.99 14.33 3.98 14.66 5 15 C4.67 15.99 4.34 16.98 4 18 C2.35 18 0.7 18 -1 18 C-1.33 16.68 -1.66 15.36 -2 14 C-2.721875 14.680625 -3.44375 15.36125 -4.1875 16.0625 C-7 18 -7 18 -9.8125 17.75 C-10.534375 17.5025 -11.25625 17.255 -12 17 C-13.10265855 13.14069508 -13.29018308 11.5468835 -11.375 7.9375 C-4.95744681 0 -4.95744681 0 0 0 Z " fill="#292827" transform="translate(126,20)"/>
<path d="M0 0 C2 2 2 2 2.375 4.75 C1.81651272 9.59022307 -0.48700669 12.4348345 -3.8125 15.875 C-6.93835006 17.48258003 -9.54581208 17.26069343 -13 17 C-14.53971828 15.46028172 -14.31779707 14.01514329 -14.4375 11.875 C-14.37016643 7.1990575 -13.10107295 4.58431789 -9.859375 1.25 C-6.4837016 -1.01936027 -3.95446354 -0.59316953 0 0 Z " fill="#201F1F" transform="translate(91,21)"/>
<path d="M0 0 C0.99 0 1.98 0 3 0 C2.39174965 4.34464536 1.73832608 8.67551867 1 13 C1.99 12.01 2.98 11.02 4 10 C4.66 10.33 5.32 10.66 6 11 C4.6190998 14.33717549 3.1798762 16.22301036 0 18 C-2.25 17.6875 -2.25 17.6875 -4 17 C-4.48736475 10.29873464 -3.07708804 5.93438408 0 0 Z " fill="#201E1E" transform="translate(99,20)"/>
<path d="M0 0 C-0.66666667 3.33333333 -1.33333333 6.66666667 -2 10 C-0.68 10.33 0.64 10.66 2 11 C2 11.66 2 12.32 2 13 C-0.875 13.625 -0.875 13.625 -4 14 C-6 12 -6 12 -6.125 8.375 C-6.08375 7.26125 -6.0425 6.1475 -6 5 C-6.99 5.495 -6.99 5.495 -8 6 C-8 5.34 -8 4.68 -8 4 C-8.66 4 -9.32 4 -10 4 C-9 1 -9 1 -7.25 -0.25 C-4.47275102 -1.17574966 -2.78428335 -0.77341204 0 0 Z " fill="#151514" transform="translate(158,24)"/>
<path d="M0 0 C-2.68841859 2.25245881 -4.64641875 3.88213958 -8 5 C-8.66 8.3 -9.32 11.6 -10 15 C-9.34 15 -8.68 15 -8 15 C-8 15.66 -8 16.32 -8 17 C-9.66611905 17.042721 -11.33382885 17.04063832 -13 17 C-14.53971828 15.46028172 -14.31779707 14.01514329 -14.4375 11.875 C-14.37012647 7.19628253 -13.09277418 4.59124162 -9.8671875 1.2421875 C-6.56614799 -0.95390155 -3.84814832 -0.46443169 0 0 Z " fill="#171616" transform="translate(91,21)"/>
<path d="M0 0 C1.32 0.33 2.64 0.66 4 1 C3.67 2.32 3.34 3.64 3 5 C3.66 5 4.32 5 5 5 C4.64598897 8.18609925 4.16972964 9.79066678 2.125 12.3125 C0 14 0 14 -3 14 C-2.40380045 9.13103697 -1.43023178 4.67209049 0 0 Z " fill="#151514" transform="translate(145,23)"/>
<path d="M0 0 C0.35475877 3.81365679 0.2619932 5.58442458 -1.8125 8.875 C-4 11 -4 11 -7 11 C-6.51098901 4.64285714 -6.51098901 4.64285714 -4.0625 1.5625 C-2 0 -2 0 0 0 Z " fill="#EAE9E7" transform="translate(88,24)"/>
<path d="M0 0 C1.22589844 0.01353516 1.22589844 0.01353516 2.4765625 0.02734375 C3.41628906 0.04474609 3.41628906 0.04474609 4.375 0.0625 C4.705 1.3825 5.035 2.7025 5.375 4.0625 C0.76426889 5.35926812 -2.96340089 4.77359139 -7.625 4.0625 C-7.295 3.0725 -6.965 2.0825 -6.625 1.0625 C-4.21954362 -0.14022819 -2.67503047 -0.03821472 0 0 Z " fill="#0A0A0A" transform="translate(70.625,7.9375)"/>
<path d="M0 0 C0 2.31 0 4.62 0 7 C1.32 7.33 2.64 7.66 4 8 C3.67 8.99 3.34 9.98 3 11 C1.35 11 -0.3 11 -2 11 C-2.12375 10.195625 -2.2475 9.39125 -2.375 8.5625 C-2.684375 7.2940625 -2.684375 7.2940625 -3 6 C-3.66 5.67 -4.32 5.34 -5 5 C-2.74193548 0 -2.74193548 0 0 0 Z " fill="#121212" transform="translate(127,27)"/>
<path d="M0 0 C0.99 0 1.98 0 3 0 C3.33 1.32 3.66 2.64 4 4 C4.66 3.34 5.32 2.68 6 2 C9.125 1.875 9.125 1.875 12 2 C11.67 2.66 11.34 3.32 11 4 C10.01 4 9.02 4 8 4 C6.95107762 5.63631892 5.95093297 7.30485863 5 9 C4.01 9.495 4.01 9.495 3 10 C2.01 9.67 1.02 9.34 0 9 C0.66 6.36 1.32 3.72 2 1 C1.34 0.67 0.68 0.34 0 0 Z " fill="#2D2D2C" transform="translate(137,20)"/>
<path d="M0 0 C0.99 0 1.98 0 3 0 C1.80086322 4.39683488 0.5711885 7.09840934 -3 10 C-3.66 10 -4.32 10 -5 10 C-4.49942848 5.61999924 -3.06806466 3.15830185 0 0 Z " fill="#D9D9D6" transform="translate(122,24)"/>
<path d="M0 0 C2.00720923 0.28674418 4.0085944 0.61866701 6 1 C5.67 4.96 5.34 8.92 5 13 C4.67 13 4.34 13 4 13 C3.67 11.02 3.34 9.04 3 7 C2.34 7 1.68 7 1 7 C1.33 5.35 1.66 3.7 2 2 C1.01 1.67 0.02 1.34 -1 1 C-0.67 0.67 -0.34 0.34 0 0 Z " fill="#1C1C1C" transform="translate(123,21)"/>
<path d="M0 0 C0.33 1.32 0.66 2.64 1 4 C1.66 4 2.32 4 3 4 C3.33 3.01 3.66 2.02 4 1 C4 1.99 4 2.98 4 4 C5.32 4.33 6.64 4.66 8 5 C8 5.66 8 6.32 8 7 C5.125 7.625 5.125 7.625 2 8 C0 6 0 6 -0.125 2.875 C-0.08375 1.92625 -0.0425 0.9775 0 0 Z " fill="#2D2D2D" transform="translate(152,30)"/>
<path d="M0 0 C0.33 1.32 0.66 2.64 1 4 C-5.28571429 6.42857143 -5.28571429 6.42857143 -9 5 C-2.87096774 0 -2.87096774 0 0 0 Z " fill="#282828" transform="translate(64,9)"/>
<path d="M0 0 C0.59296875 0.22558594 1.1859375 0.45117188 1.796875 0.68359375 C0.806875 1.01359375 -0.183125 1.34359375 -1.203125 1.68359375 C-0.543125 2.34359375 0.116875 3.00359375 0.796875 3.68359375 C-0.193125 4.01359375 -1.183125 4.34359375 -2.203125 4.68359375 C-3.87022846 6.18344984 -3.87022846 6.18344984 -5.203125 7.68359375 C-6.193125 7.02359375 -7.183125 6.36359375 -8.203125 5.68359375 C-7.30284912 4.64827649 -6.38219465 3.6306521 -5.453125 2.62109375 C-4.68742187 1.76837891 -4.68742187 1.76837891 -3.90625 0.8984375 C-2.203125 -0.31640625 -2.203125 -0.31640625 0 0 Z " fill="#2A2A2A" transform="translate(124.203125,20.31640625)"/>
<path d="M0 0 C-1.98 0.99 -1.98 0.99 -4 2 C-4 2.99 -4 3.98 -4 5 C-4.99 5.33 -5.98 5.66 -7 6 C-7 5.34 -7 4.68 -7 4 C-7.66 4 -8.32 4 -9 4 C-8 1 -8 1 -6.1875 -0.25 C-3.66056586 -1.11637742 -2.47778006 -0.88492145 0 0 Z " fill="#353535" transform="translate(157,24)"/>
<path d="M0 0 C0.99 0 1.98 0 3 0 C2.67 2.31 2.34 4.62 2 7 C0.68 6.67 -0.64 6.34 -2 6 C-1.34 4.02 -0.68 2.04 0 0 Z " fill="#272627" transform="translate(99,20)"/>
<path d="M0 0 C2.64 0 5.28 0 8 0 C7.67 0.99 7.34 1.98 7 3 C5.02 3 3.04 3 1 3 C0.67 2.01 0.34 1.02 0 0 Z " fill="#1C1E1E" transform="translate(90,46)"/>
<path d="M0 0 C0.33 0.66 0.66 1.32 1 2 C-0.21480305 5.42353587 -2.01771223 7.01180815 -5 9 C-5.66 8.67 -6.32 8.34 -7 8 C-4.69 5.36 -2.38 2.72 0 0 Z " fill="#DFE0DE" transform="translate(152,28)"/>
<path d="M0 0 C0.66 1.32 1.32 2.64 2 4 C0.35 4.66 -1.3 5.32 -3 6 C-3 5.34 -3 4.68 -3 4 C-3.66 3.67 -4.32 3.34 -5 3 C-3.35 2.01 -1.7 1.02 0 0 Z " fill="#262525" transform="translate(86,32)"/>
<path d="M0 0 C0.33 0.99 0.66 1.98 1 3 C-0.32 4.32 -1.64 5.64 -3 7 C-3 5.02 -3 3.04 -3 1 C-2.01 0.67 -1.02 0.34 0 0 Z " fill="#121010" transform="translate(118,26)"/>
<path d="M0 0 C1.98 0.495 1.98 0.495 4 1 C2.515 3.475 2.515 3.475 1 6 C0.34 5.01 -0.32 4.02 -1 3 C-0.67 2.01 -0.34 1.02 0 0 Z " fill="#080907" transform="translate(145,23)"/>
</svg>
